<?xml version="1.0" encoding="UTF-8" standalone="no"?>
<!DOCTYPE svg PUBLIC "-//W3C//DTD SVG 1.1//EN" "http://www.w3.org/Graphics/SVG/1.1/DTD/svg11.dtd">
<svg width="100%" height="100%" viewBox="0 0 500 500" version="1.1" xmlns="http://www.w3.org/2000/svg" xmlns:xlink="http://www.w3.org/1999/xlink" xml:space="preserve" xmlns:serif="http://www.serif.com/" style="fill-rule:evenodd;clip-rule:evenodd;stroke-linejoin:round;stroke-miterlimit:2;">
    <path d="M386.042,458.953L125.615,458.792C77.193,450 35.292,401.943 58.328,358.458C80.755,316.109 118.38,274.214 141.969,250.073C109.417,298.891 116.198,353.063 145.677,386.938C200.969,450.479 386.042,458.953 386.042,458.953Z" style="fill:white;"/>
    <path d="M138.943,412.146C274.969,459.135 386.042,458.953 386.042,458.953L34.245,459.526C34.245,459.526 53.781,428.13 62.703,419.776C82.349,401.375 113.5,403.354 138.943,412.146Z" style="fill:white;"/>
    <path d="M370.042,420.12C324.635,420.12 274.724,409.49 244.255,401.698C247.839,402.161 251.479,402.385 255.177,402.385C305.365,402.385 363.5,360.719 367.568,307.896C372.818,239.661 303.115,85.885 303.115,85.885L303.156,85.958C304.875,88.948 359.24,184.229 386.125,323.286C391.177,349.401 404.771,377.021 429.943,385.208C420.417,404.875 403.432,419.083 379.938,419.943C376.672,420.063 373.365,420.12 370.042,420.12Z" style="fill:white;"/>
    <path d="M479.51,390.266C479.51,390.266 442.547,389.042 430.849,385.495C430.547,385.406 430.245,385.307 429.943,385.208C404.771,377.021 391.177,349.401 386.125,323.286C359.24,184.229 304.875,88.948 303.156,85.958C303.13,85.911 303.115,85.885 303.115,85.885L479.51,390.266Z" style="fill:white;"/>
    <path d="M21.49,344.24L21.531,344.161C23.297,341.125 78.63,246.427 185.583,153.646C205.672,136.219 222.797,110.635 217.297,84.74C219.146,84.604 220.99,84.536 222.823,84.536C242.563,84.536 260.953,92.448 272.38,110.677C297.839,151.276 315.313,204.802 324.422,237.302C324.547,237.745 324.604,238.172 324.604,238.578C324.604,238.172 324.547,237.745 324.422,237.302C316.729,209.854 276.547,171.49 220.828,171.49C210.573,171.49 199.786,172.792 188.589,175.698C126.677,191.76 21.49,344.24 21.49,344.24Z" style="fill:white;"/>
    <path d="M21.49,344.24L21.49,344.234L21.49,344.24ZM21.49,344.24L21.49,344.234L21.49,344.24ZM21.495,344.234L21.49,344.24L21.495,344.234ZM21.49,344.24L196.896,39.286C196.896,39.286 214.318,71.906 217.094,83.807C217.161,84.12 217.234,84.427 217.297,84.74C222.797,110.635 205.672,136.219 185.583,153.646C78.63,246.427 23.297,341.125 21.531,344.161C21.51,344.198 21.5,344.224 21.495,344.234L21.49,344.24Z" style="fill:white;"/>
    <g>
        <clipPath id="_clip1">
            <rect x="149.333" y="225.901" width="164" height="133"/>
        </clipPath>
        <g clip-path="url(#_clip1)">
            <path d="M186.693,306.813L187.771,306.813L194.536,318.526L202.448,318.526L202.448,321L182.25,321L182.25,325.948L198.813,325.948L206.167,338.708L212.901,338.708L212.901,341.182L182.146,341.182L182.146,343.656L182.167,343.656L182.167,346.13L210.443,346.13L210.495,346.214C213.609,351.62 218.979,354.714 225.203,354.714L240.135,354.714C240.469,354.714 240.807,354.698 241.146,354.682C244.813,354.479 248.146,353.203 250.839,350.979C252.406,349.698 253.771,348.083 254.844,346.214L255.854,344.464L255.922,344.365L267.635,324.063L270.516,319.083L294.922,319.083L282.214,341.083C281,343.188 279.182,344.313 276.813,344.448C275.146,341.302 271.828,339.146 268.026,339.146C262.536,339.146 258.094,343.589 258.094,349.078C258.094,354.563 262.536,359.005 268.026,359.005C271.427,359.005 274.422,357.292 276.224,354.698L276.375,354.698C282.62,354.698 287.969,351.604 291.083,346.198L303.875,324.047L306.755,319.068L312.495,309.12C311.453,308.932 310.359,308.833 309.245,308.833L264.594,308.833L258.682,319.083L250,334.115L245.974,341.083C245.839,341.333 245.688,341.552 245.521,341.771C244.24,343.542 242.422,344.448 240.135,344.448L225.203,344.448C222.63,344.448 220.661,343.302 219.365,341.083L193.781,296.781C192.484,294.542 192.484,292.271 193.781,290.031L217.292,249.313L219.281,245.88C224.5,245.578 228.641,241.25 228.641,235.964C228.641,230.479 224.193,226.036 218.708,226.036C213.219,226.036 208.776,230.479 208.776,235.964C208.776,237.849 209.297,239.62 210.224,241.115L209.516,242.344L206.839,246.99L212.547,246.99L212.547,249.464L185.917,249.464L185.917,254.411L202.568,254.411L199.167,260.286L206.891,260.286L206.891,262.76L174.323,262.76L174.323,267.708L194.875,267.708L187.885,279.797L195.75,279.797L195.75,282.271L174.302,282.271L174.302,287.219L183.797,287.219C182.182,291.208 182.146,295.484 183.714,299.474L189.505,299.474L189.505,301.948L150.234,301.948L150.234,306.896L186.677,306.896L186.693,306.813Z" style="fill:white;"/>
        </g>
    </g>
    <g>
        <path d="M252.995,232.078L241.161,232.078L235.255,242.328L230.807,250.036L223.49,262.729L217.766,272.641L210.693,284.88C210.458,285.281 210.24,285.688 210.057,286.094C207.802,290.786 207.802,295.953 210.057,300.651C210.255,301.057 210.458,301.458 210.693,301.865L217.766,314.099L223.49,324.016L224.161,325.177C223.318,326.641 222.849,328.323 222.849,330.125C222.849,335.609 227.292,340.057 232.781,340.057C238.266,340.057 242.708,335.609 242.708,330.125C242.708,324.755 238.432,320.38 233.115,320.193L219.568,296.729C218.271,294.49 218.271,292.219 219.568,289.979L241.125,252.646L245.552,244.969L247.104,242.297L276.391,242.297C278.964,242.297 280.938,243.438 282.229,245.661L295.714,269.005L271.323,269.005L267.672,262.693L265.734,259.344C266.276,258.115 266.578,256.771 266.578,255.339C266.578,249.854 262.135,245.406 256.646,245.406C251.161,245.406 246.714,249.854 246.714,255.339C246.714,260.828 251.161,265.271 256.646,265.271C256.88,265.271 257.099,265.271 257.318,265.255L259.49,269.005L265.401,279.255L313.453,279.255L307.547,269.005L303.896,262.693L291.104,240.542C287.99,235.141 282.635,232.042 276.391,232.042L253.01,232.042L252.995,232.078Z" style="fill:white;"/>
    </g>
    <rect x="157.724" y="253.875" width="18.552" height="4.932" style="fill:white;"/>
    <rect x="150.974" y="274.797" width="19.896" height="4.932" style="fill:white;"/>
    <rect x="162.083" y="312.823" width="17.021" height="4.948" style="fill:white;"/>
    <rect x="162.302" y="334.688" width="21.729" height="4.948" style="fill:white;"/>
    <g>
        <rect x="134.766" y="309.12" width="16.833" height="4.927" style="fill:white;"/>
    </g>
</svg>
