<svg xmlns="http://www.w3.org/2000/svg" xmlns:xlink="http://www.w3.org/1999/xlink" width="500" zoomAndPan="magnify" viewBox="0 0 375 374.999991" height="500" preserveAspectRatio="xMidYMid meet" version="1.0"><defs><clipPath id="c1272b3c64"><path d="M 112 169.425781 L 235 169.425781 L 235 269.175781 L 112 269.175781 Z M 112 169.425781 " clip-rule="nonzero"/></clipPath><clipPath id="a4f898b0a3"><path d="M 156 174 L 235.324219 174 L 235.324219 256 L 156 256 Z M 156 174 " clip-rule="nonzero"/></clipPath><clipPath id="7976a04340"><path d="M 101.074219 231 L 114 231 L 114 236 L 101.074219 236 Z M 101.074219 231 " clip-rule="nonzero"/></clipPath></defs><rect x="-37.5" width="450" fill="#ffffff" y="-37.499999" height="449.999989" fill-opacity="1"/><rect x="-37.5" width="450" fill="#ffffff" y="-37.499999" height="449.999989" fill-opacity="1"/><path fill="#4754a5" d="M 289.53125 344.214844 L 94.210938 344.09375 C 57.894531 337.5 26.46875 301.457031 43.746094 268.84375 C 60.566406 237.082031 88.785156 205.660156 106.476562 187.554688 C 82.0625 224.167969 87.148438 264.796875 109.257812 290.203125 C 150.726562 337.859375 289.53125 344.214844 289.53125 344.214844 Z M 289.53125 344.214844 " fill-opacity="1" fill-rule="evenodd"/><path fill="#68c3d4" d="M 104.207031 309.109375 C 206.226562 344.351562 289.53125 344.214844 289.53125 344.214844 L 25.683594 344.644531 C 25.683594 344.644531 40.335938 321.097656 47.027344 314.832031 C 61.761719 301.03125 85.125 302.515625 104.207031 309.109375 Z M 104.207031 309.109375 " fill-opacity="1" fill-rule="evenodd"/><path fill="#4754a5" d="M 277.53125 315.089844 C 243.476562 315.089844 206.042969 307.117188 183.191406 301.273438 C 185.878906 301.621094 188.609375 301.789062 191.382812 301.789062 C 229.023438 301.789062 272.625 270.539062 275.675781 230.921875 C 279.613281 179.746094 227.335938 64.414062 227.335938 64.414062 L 227.367188 64.46875 C 228.65625 66.710938 269.429688 138.171875 289.59375 242.464844 C 293.382812 262.050781 303.578125 282.765625 322.457031 288.90625 C 315.3125 303.65625 302.574219 314.3125 284.953125 314.957031 C 282.503906 315.046875 280.023438 315.089844 277.53125 315.089844 Z M 277.53125 315.089844 " fill-opacity="1" fill-rule="evenodd"/><path fill="#68c3d4" d="M 359.632812 292.699219 C 359.632812 292.699219 331.910156 291.78125 323.136719 289.121094 C 322.910156 289.054688 322.683594 288.980469 322.457031 288.90625 C 303.578125 282.765625 293.382812 262.050781 289.59375 242.464844 C 269.429688 138.171875 228.65625 66.710938 227.367188 64.46875 C 227.347656 64.433594 227.335938 64.414062 227.335938 64.414062 Z M 359.632812 292.699219 " fill-opacity="1" fill-rule="evenodd"/><path fill="#4754a5" d="M 16.117188 258.179688 L 16.148438 258.121094 C 17.472656 255.84375 58.972656 184.820312 139.1875 115.234375 C 154.253906 102.164062 167.097656 82.976562 162.972656 63.554688 C 164.359375 63.453125 165.742188 63.402344 167.117188 63.402344 C 181.921875 63.402344 195.714844 69.335938 204.285156 83.007812 C 223.378906 113.457031 236.484375 153.601562 243.316406 177.976562 C 243.410156 178.308594 243.453125 178.628906 243.453125 178.933594 C 243.453125 178.628906 243.410156 178.308594 243.316406 177.976562 C 237.546875 157.390625 207.410156 128.617188 165.621094 128.617188 C 157.929688 128.617188 149.839844 129.59375 141.441406 131.773438 C 95.007812 143.820312 16.117188 258.179688 16.117188 258.179688 Z M 16.117188 258.179688 " fill-opacity="1" fill-rule="evenodd"/><path fill="#68c3d4" d="M 16.117188 258.179688 C 16.117188 258.179688 16.117188 258.175781 16.117188 258.175781 Z M 16.117188 258.179688 L 16.117188 258.175781 Z M 16.121094 258.175781 L 16.117188 258.179688 Z M 16.117188 258.179688 L 147.671875 29.464844 C 147.671875 29.464844 160.738281 53.929688 162.820312 62.855469 C 162.871094 63.089844 162.925781 63.320312 162.972656 63.554688 C 167.097656 82.976562 154.253906 102.164062 139.1875 115.234375 C 58.972656 184.820312 17.472656 255.84375 16.148438 258.121094 C 16.132812 258.148438 16.125 258.167969 16.121094 258.175781 Z M 16.117188 258.179688 " fill-opacity="1" fill-rule="evenodd"/><g clip-path="url(#c1272b3c64)"><path fill="#4754a5" d="M 140.019531 230.109375 L 140.828125 230.109375 L 145.902344 238.894531 L 151.835938 238.894531 L 151.835938 240.75 L 136.6875 240.75 L 136.6875 244.460938 L 149.109375 244.460938 L 154.625 254.03125 L 159.675781 254.03125 L 159.675781 255.886719 L 136.609375 255.886719 L 136.609375 257.742188 L 136.625 257.742188 L 136.625 259.597656 L 157.832031 259.597656 L 157.871094 259.660156 C 160.207031 263.714844 164.234375 266.035156 168.902344 266.035156 L 180.101562 266.035156 C 180.351562 266.035156 180.605469 266.023438 180.859375 266.011719 C 183.609375 265.859375 186.109375 264.902344 188.128906 263.234375 C 189.304688 262.273438 190.328125 261.0625 191.132812 259.660156 L 191.890625 258.347656 L 191.941406 258.273438 L 200.726562 243.046875 L 202.886719 239.3125 L 221.191406 239.3125 L 211.660156 255.8125 C 210.75 257.390625 209.386719 258.234375 207.609375 258.335938 C 206.359375 255.976562 203.871094 254.359375 201.019531 254.359375 C 196.902344 254.359375 193.570312 257.691406 193.570312 261.808594 C 193.570312 265.921875 196.902344 269.253906 201.019531 269.253906 C 203.570312 269.253906 205.816406 267.96875 207.167969 266.023438 L 207.28125 266.023438 C 211.964844 266.023438 215.976562 263.703125 218.3125 259.648438 L 227.90625 243.035156 L 230.066406 239.300781 L 234.371094 231.839844 C 233.589844 231.699219 232.769531 231.625 231.933594 231.625 L 198.445312 231.625 L 194.011719 239.3125 L 187.5 250.585938 L 184.480469 255.8125 C 184.378906 256 184.265625 256.164062 184.140625 256.328125 C 183.179688 257.65625 181.816406 258.335938 180.101562 258.335938 L 168.902344 258.335938 C 166.972656 258.335938 165.496094 257.476562 164.523438 255.8125 L 145.335938 222.585938 C 144.363281 220.90625 144.363281 219.203125 145.335938 217.523438 L 162.96875 186.984375 L 164.460938 184.410156 C 168.375 184.183594 171.480469 180.9375 171.480469 176.972656 C 171.480469 172.859375 168.144531 169.527344 164.03125 169.527344 C 159.914062 169.527344 156.582031 172.859375 156.582031 176.972656 C 156.582031 178.386719 156.972656 179.714844 157.667969 180.835938 L 157.136719 181.757812 L 155.128906 185.242188 L 159.410156 185.242188 L 159.410156 187.097656 L 139.4375 187.097656 L 139.4375 190.808594 L 151.925781 190.808594 L 149.375 195.214844 L 155.167969 195.214844 L 155.167969 197.070312 L 130.742188 197.070312 L 130.742188 200.78125 L 146.15625 200.78125 L 140.914062 209.847656 L 146.8125 209.847656 L 146.8125 211.703125 L 130.726562 211.703125 L 130.726562 215.414062 L 137.847656 215.414062 C 136.636719 218.40625 136.609375 221.613281 137.785156 224.605469 L 142.128906 224.605469 L 142.128906 226.460938 L 112.675781 226.460938 L 112.675781 230.171875 L 140.007812 230.171875 Z M 140.019531 230.109375 " fill-opacity="1" fill-rule="evenodd"/></g><g clip-path="url(#a4f898b0a3)"><path fill="#4754a5" d="M 189.746094 174.058594 L 180.871094 174.058594 L 176.441406 181.746094 L 173.105469 187.527344 L 167.617188 197.046875 L 163.324219 204.480469 L 158.019531 213.660156 C 157.84375 213.960938 157.679688 214.265625 157.542969 214.570312 C 155.851562 218.089844 155.851562 221.964844 157.542969 225.488281 C 157.691406 225.792969 157.84375 226.09375 158.019531 226.398438 L 163.324219 235.574219 L 167.617188 243.011719 L 168.121094 243.882812 C 167.488281 244.980469 167.136719 246.242188 167.136719 247.59375 C 167.136719 251.707031 170.46875 255.042969 174.585938 255.042969 C 178.699219 255.042969 182.03125 251.707031 182.03125 247.59375 C 182.03125 243.566406 178.824219 240.285156 174.835938 240.144531 L 164.675781 222.546875 C 163.703125 220.867188 163.703125 219.164062 164.675781 217.484375 L 180.84375 189.484375 L 184.164062 183.726562 L 185.328125 181.722656 L 207.292969 181.722656 C 209.222656 181.722656 210.703125 182.578125 211.671875 184.246094 L 221.785156 201.753906 L 203.492188 201.753906 L 200.753906 197.019531 L 199.300781 194.507812 C 199.707031 193.585938 199.933594 192.578125 199.933594 191.503906 C 199.933594 187.390625 196.601562 184.054688 192.484375 184.054688 C 188.371094 184.054688 185.035156 187.390625 185.035156 191.503906 C 185.035156 195.621094 188.371094 198.953125 192.484375 198.953125 C 192.660156 198.953125 192.824219 198.953125 192.988281 198.941406 L 194.617188 201.753906 L 199.050781 209.441406 L 235.089844 209.441406 L 230.660156 201.753906 L 227.921875 197.019531 L 218.328125 180.40625 C 215.992188 176.355469 211.976562 174.03125 207.292969 174.03125 L 189.757812 174.03125 Z M 189.746094 174.058594 " fill-opacity="1" fill-rule="evenodd"/></g><path fill="#68c3d4" d="M 118.292969 190.40625 L 132.207031 190.40625 L 132.207031 194.105469 L 118.292969 194.105469 Z M 118.292969 190.40625 " fill-opacity="1" fill-rule="evenodd"/><path fill="#68c3d4" d="M 113.230469 206.097656 L 128.152344 206.097656 L 128.152344 209.796875 L 113.230469 209.796875 Z M 113.230469 206.097656 " fill-opacity="1" fill-rule="evenodd"/><path fill="#68c3d4" d="M 121.5625 234.617188 L 134.328125 234.617188 L 134.328125 238.328125 L 121.5625 238.328125 Z M 121.5625 234.617188 " fill-opacity="1" fill-rule="evenodd"/><path fill="#68c3d4" d="M 121.726562 251.015625 L 138.023438 251.015625 L 138.023438 254.726562 L 121.726562 254.726562 Z M 121.726562 251.015625 " fill-opacity="1" fill-rule="evenodd"/><g clip-path="url(#7976a04340)"><path fill="#68c3d4" d="M 101.074219 231.839844 L 113.699219 231.839844 L 113.699219 235.535156 L 101.074219 235.535156 Z M 101.074219 231.839844 " fill-opacity="1" fill-rule="evenodd"/></g></svg>